<svg width="24" height="24" viewBox="0 0 24 24" fill="none" xmlns="http://www.w3.org/2000/svg">
    <g clip-path="url(#clip0_3505_42)">
        <path d="M22 8.875C22.002 8.3933 21.8714 7.92033 21.6225 7.5079C21.3736 7.09547 21.0161 6.75947 20.589 6.5367C20.1619 6.31393 19.6817 6.21298 19.2011 6.2449C18.7204 6.27683 18.2578 6.44039 17.8639 6.71769C17.47 6.99499 17.16 7.37532 16.9679 7.81705C16.7758 8.25877 16.7089 8.74485 16.7745 9.22206C16.8402 9.69927 17.0359 10.1492 17.3403 10.5226C17.6446 10.896 18.0458 11.1784 18.5 11.339V15C18.5 16.3924 17.9469 17.7277 16.9623 18.7123C15.9777 19.6969 14.6424 20.25 13.25 20.25C11.8576 20.25 10.5223 19.6969 9.53769 18.7123C8.55312 17.7277 8 16.3924 8 15V14.93C9.45607 14.7187 10.7876 13.9908 11.7514 12.8792C12.7153 11.7675 13.2472 10.3463 13.25 8.875V5.375C13.2486 4.2151 12.7872 3.10311 11.9671 2.28294C11.1469 1.46277 10.0349 1.00139 8.875 1C8.64294 1 8.42038 1.09219 8.25628 1.25628C8.09219 1.42038 8 1.64294 8 1.875C8 2.10706 8.09219 2.32962 8.25628 2.49372C8.42038 2.65781 8.64294 2.75 8.875 2.75C9.57119 2.75 10.2389 3.02656 10.7312 3.51884C11.2234 4.01113 11.5 4.67881 11.5 5.375V8.875C11.5 10.0353 11.0391 11.1481 10.2186 11.9686C9.39812 12.7891 8.28532 13.25 7.125 13.25C5.96468 13.25 4.85188 12.7891 4.03141 11.9686C3.21094 11.1481 2.75 10.0353 2.75 8.875V5.375C2.75 4.67881 3.02656 4.01113 3.51884 3.51884C4.01113 3.02656 4.67881 2.75 5.375 2.75C5.60706 2.75 5.82962 2.65781 5.99372 2.49372C6.15781 2.32962 6.25 2.10706 6.25 1.875C6.25 1.64294 6.15781 1.42038 5.99372 1.25628C5.82962 1.09219 5.60706 1 5.375 1C4.2151 1.00139 3.10311 1.46277 2.28294 2.28294C1.46277 3.10311 1.00139 4.2151 1 5.375L1 8.875C1.00281 10.3463 1.53471 11.7675 2.49856 12.8792C3.46241 13.9908 4.79393 14.7187 6.25 14.93V15C6.25 16.8565 6.9875 18.637 8.30025 19.9497C9.61301 21.2625 11.3935 22 13.25 22C15.1065 22 16.887 21.2625 18.1997 19.9497C19.5125 18.637 20.25 16.8565 20.25 15V11.339C20.76 11.1587 21.2019 10.8252 21.5152 10.3841C21.8284 9.94305 21.9978 9.41598 22 8.875V8.875ZM19.375 9.75C19.2019 9.75 19.0328 9.69868 18.8889 9.60254C18.745 9.50639 18.6328 9.36973 18.5666 9.20985C18.5004 9.04996 18.4831 8.87403 18.5168 8.7043C18.5506 8.53456 18.6339 8.37865 18.7563 8.25628C18.8787 8.13391 19.0346 8.05057 19.2043 8.01681C19.374 7.98305 19.55 8.00038 19.7098 8.06661C19.8697 8.13283 20.0064 8.24498 20.1025 8.38888C20.1987 8.53277 20.25 8.70194 20.25 8.875C20.25 9.10706 20.1578 9.32962 19.9937 9.49372C19.8296 9.65781 19.6071 9.75 19.375 9.75Z"
              fill="#292D32"/>
    </g>
    <defs>
        <clipPath id="clip0_3505_42">
            <rect width="21" height="21" fill="white" transform="translate(1 1)"/>
        </clipPath>
    </defs>
</svg>
